<svg width="44" height="44" viewBox="0 0 44 44" fill="none" xmlns="http://www.w3.org/2000/svg">
<rect width="44" height="44" rx="22" fill="#E0EFFF"/>
<path d="M16.75 11.5C16.75 10.7031 17.4062 10 18.25 10C19.0469 10 19.75 10.7031 19.75 11.5V13H21.25V11.5C21.25 10.7031 21.9062 10 22.75 10C23.5469 10 24.25 10.7031 24.25 11.5V13C24.25 13.0938 24.2031 13.1875 24.2031 13.2344C26.4062 13.8906 28 15.9062 28 18.25C28 19.4219 27.625 20.4531 27.0156 21.2969C28.5156 22.2344 29.5 23.875 29.5 25.75C29.5 28.6562 27.1094 31 24.25 31V32.5C24.25 33.3438 23.5469 34 22.75 34C21.9062 34 21.25 33.3438 21.25 32.5V31H19.75V32.5C19.75 33.3438 19.0469 34 18.25 34C17.4062 34 16.75 33.3438 16.75 32.5V31H16.4219C15.3438 31 14.5 30.1562 14.5 29.0781V23.5V22.4688V20.5V14.7812C14.5 13.7969 15.25 13 16.2344 13H16.75V11.5ZM17.5 20.5H22.75C23.9688 20.5 25 19.5156 25 18.25C25 17.0312 23.9688 16 22.75 16H17.5V20.5ZM22.75 23.5H17.5V28H24.25C25.4688 28 26.5 27.0156 26.5 25.75C26.5 24.5312 25.4688 23.5 24.25 23.5H22.75Z" fill="#1F1A4D"/>
</svg>
