<svg width="44" height="44" viewBox="0 0 44 44" fill="none" xmlns="http://www.w3.org/2000/svg">
<rect width="44" height="44" rx="22" fill="#E0EFFF"/>
<path d="M20.4636 18.7463C20.6908 18.5658 20.9607 18.4345 21.25 18.3525V21.1474C20.9552 21.0637 20.686 20.9304 20.4636 20.7537C20.0699 20.441 19.9175 20.073 19.9175 19.75C19.9175 19.427 20.0699 19.059 20.4636 18.7463Z" fill="#0F172A"/>
<path d="M22.75 25.6616V22.8383C23.0972 22.9228 23.4138 23.0658 23.6713 23.259C24.0978 23.5788 24.25 23.9448 24.25 24.25C24.25 24.5551 24.0978 24.9211 23.6713 25.241C23.4138 25.4342 23.0972 25.5772 22.75 25.6616Z" fill="#0F172A"/>
<path fill-rule="evenodd" clip-rule="evenodd" d="M22 12.25C16.6152 12.25 12.25 16.6152 12.25 22C12.25 27.3848 16.6152 31.75 22 31.75C27.3848 31.75 31.75 27.3848 31.75 22C31.75 16.6152 27.3848 12.25 22 12.25ZM22.75 16C22.75 15.5858 22.4142 15.25 22 15.25C21.5858 15.25 21.25 15.5858 21.25 16V16.8156C20.6231 16.9267 20.0253 17.1787 19.5306 17.5718C18.8182 18.1377 18.4175 18.9213 18.4175 19.75C18.4175 20.5787 18.8182 21.3623 19.5306 21.9282C20.033 22.3274 20.6327 22.575 21.25 22.6843V25.6616C20.9028 25.5771 20.5864 25.4341 20.3289 25.241L19.45 24.5818C19.1186 24.3333 18.6485 24.4004 18.4 24.7318C18.1515 25.0631 18.2186 25.5332 18.55 25.7818L19.4289 26.441C19.9621 26.8409 20.5979 27.0856 21.25 27.1903V28C21.25 28.4142 21.5858 28.75 22 28.75C22.4142 28.75 22.75 28.4142 22.75 28V27.1904C23.4021 27.0856 24.0381 26.8409 24.5714 26.441C25.3164 25.8821 25.75 25.0965 25.75 24.25C25.75 23.4034 25.3164 22.6178 24.5714 22.059C24.0381 21.659 23.4021 21.4143 22.75 21.3096V18.3526C23.0392 18.4346 23.309 18.5658 23.5361 18.7463L23.951 19.0759C24.2753 19.3335 24.7471 19.2794 25.0048 18.9551C25.2624 18.6308 25.2084 18.159 24.884 17.9013L24.4691 17.5718C23.9745 17.1788 23.3768 16.9268 22.75 16.8157V16Z" fill="#0F172A"/>
</svg>
