<svg width="44" height="44" viewBox="0 0 44 44" fill="none" xmlns="http://www.w3.org/2000/svg">
<rect width="44" height="44" rx="22" fill="#E0EFFF"/>
<path d="M29.875 30.25C30.4844 30.25 31 30.7656 31 31.375C31 32.0312 30.4844 32.5 29.875 32.5H14.125C13.4688 32.5 13 32.0312 13 31.375C13 30.7188 13.4688 30.25 14.125 30.25H29.875ZM27.1562 19.75C27.5781 19.2812 28.2812 19.2812 28.75 19.7031C29.2188 20.125 29.2188 20.8281 28.7969 21.2969L22.7969 27.6719C22.375 28.1406 21.5781 28.1406 21.1562 27.6719L15.1562 21.2969C14.7344 20.8281 14.7344 20.125 15.2031 19.7031C15.4375 19.5156 15.7188 19.4219 16 19.4219C16.2812 19.4219 16.5625 19.5156 16.7969 19.75L20.875 24.0625V12.6719C20.875 12.0156 21.3438 11.5 22 11.5C22.6094 11.5 23.125 12.0156 23.125 12.6719V24.0625L27.1562 19.75Z" fill="#1F1A4D"/>
</svg>
