<svg width="28" height="29" viewBox="0 0 28 29" fill="none" xmlns="http://www.w3.org/2000/svg">
<rect y="0.405518" width="28" height="28" rx="14" fill="#129007"/>
<path d="M10.8125 7.87427L15.1875 14.4055H17V8.40552C17 7.87427 17.4375 7.40552 18 7.40552C18.5312 7.40552 19 7.87427 19 8.40552V14.4055H20C20.5312 14.4055 21 14.8743 21 15.4055C21 15.968 20.5312 16.4055 20 16.4055H19V20.4368C19 20.8743 18.6875 21.2493 18.2812 21.3743C17.8438 21.4993 17.4062 21.343 17.1562 20.968L14.125 16.4055H11V20.4055C11 20.968 10.5312 21.4055 10 21.4055C9.4375 21.4055 9 20.968 9 20.4055V16.4055H8C7.4375 16.4055 7 15.968 7 15.4055C7 14.8743 7.4375 14.4055 8 14.4055H9V8.40552C9 7.96802 9.28125 7.59302 9.6875 7.46802C10.125 7.34302 10.5625 7.49927 10.8125 7.87427ZM16.5312 16.4055L17 17.1243V16.4055H16.5312ZM12.7812 14.4055L11 11.718V14.4055H12.7812Z" fill="white"/>
</svg>
