<svg width="44" height="44" viewBox="0 0 44 44" fill="none" xmlns="http://www.w3.org/2000/svg">
<rect width="44" height="44" rx="22" fill="#E0EFFF"/>
<path d="M30.6719 13.3633C31.1406 13.7852 31.1406 14.4883 30.6719 14.9102L14.9219 30.6602C14.7344 30.8945 14.4531 30.9883 14.1719 30.9883C13.8438 30.9883 13.5625 30.8945 13.3281 30.6602C12.8594 30.2383 12.8594 29.5352 13.3281 29.1133L29.0781 13.3633C29.5 12.8945 30.2031 12.8945 30.6719 13.3633ZM16.0469 18.2383C14.7812 18.2383 13.7969 17.2539 13.7969 15.9883C13.7969 14.7695 14.7812 13.7383 16.0469 13.7383C17.2656 13.7383 18.2969 14.7695 18.2969 15.9883C18.2969 17.2539 17.2656 18.2383 16.0469 18.2383ZM28.0469 25.7383C29.2656 25.7383 30.2969 26.7695 30.2969 27.9883C30.2969 29.2539 29.2656 30.2383 28.0469 30.2383C26.7812 30.2383 25.7969 29.2539 25.7969 27.9883C25.7969 26.7695 26.7812 25.7383 28.0469 25.7383Z" fill="#403F3F"/>
</svg>
