<svg width="44" height="44" viewBox="0 0 44 44" fill="none" xmlns="http://www.w3.org/2000/svg">
<rect width="44" height="44" rx="22" fill="#E0EFFF"/>
<path d="M12.2731 15.6252C13.0664 14.9249 14.1085 14.5 15.2499 14.5H28.7499C29.8913 14.5 30.9334 14.9249 31.7267 15.6252C31.5423 14.1453 30.2798 13 28.7499 13H15.2499C13.72 13 12.4575 14.1453 12.2731 15.6252Z" fill="#0F172A"/>
<path d="M12.2731 18.6252C13.0664 17.9249 14.1085 17.5 15.2499 17.5H28.7499C29.8913 17.5 30.9334 17.9249 31.7267 18.6252C31.5423 17.1453 30.2798 16 28.7499 16H15.2499C13.72 16 12.4575 17.1453 12.2731 18.6252Z" fill="#0F172A"/>
<path d="M15.25 19C13.5931 19 12.25 20.3431 12.25 22V28C12.25 29.6569 13.5931 31 15.25 31H28.75C30.4069 31 31.75 29.6569 31.75 28V22C31.75 20.3431 30.4069 19 28.75 19H25C24.5858 19 24.25 19.3358 24.25 19.75C24.25 20.9926 23.2426 22 22 22C20.7574 22 19.75 20.9926 19.75 19.75C19.75 19.3358 19.4142 19 19 19H15.25Z" fill="#0F172A"/>
</svg>
